<svg xmlns="http://www.w3.org/2000/svg" width="240" height="240" viewBox="0 0 240 240"><defs><linearGradient id="g" x1="0" y1="0" x2="1" y2="1"><stop offset="0" stop-color="#F4B36C"></stop><stop offset="0.5" stop-color="#DB8E46"></stop><stop offset="1" stop-color="#C2662C"></stop></linearGradient></defs><rect x="0" y="0" width="240" height="240" fill="#0B0A08"></rect><rect x="34" y="34" width="172" height="172" rx="44" fill="url(#g)"></rect><g fill="#0B0A08"><path fill-rule="evenodd" d="M68,134 A52,60 0 1,1 172,134 A52,60 0 1,1 68,134 Z M94,136 A26,33 0 1,1 146,136 A26,33 0 1,1 94,136 Z"></path><path d="M102,84 L108,66 L114,76 L120,58 L126,76 L132,66 L138,84 Z"></path><path d="M119,124 C112,119 104,119 99,122 L99,150 C104,146 112,147 119,153 Z"></path><path d="M122,124 L132,122 C139,122 143,127 143,134 L143,146 C143,152 138,155 132,153 L122,152 Z"></path></g><g fill="url(#g)"><rect x="128.5" y="132.5" width="8" height="2.6" rx="1.1"></rect><rect x="131.2" y="129.8" width="2.6" height="8" rx="1.1"></rect><circle cx="138" cy="146" r="2.3"></circle></g></svg>