<svg xmlns="http://www.w3.org/2000/svg" width="240" height="240" viewBox="0 0 240 240"><defs><linearGradient id="g" x1="0" y1="0" x2="1" y2="1"><stop offset="0" stop-color="#F4B36C"></stop><stop offset="0.5" stop-color="#DB8E46"></stop><stop offset="1" stop-color="#C2662C"></stop></linearGradient></defs><rect x="0" y="0" width="240" height="240" fill="#0B0A08"></rect><rect x="34" y="34" width="172" height="172" rx="44" fill="url(#g)"></rect><g fill="#0B0A08"><path fill-rule="evenodd" d="M64,122 A56,64 0 1,1 176,122 A56,64 0 1,1 64,122 Z M92,124 A28,35 0 1,1 148,124 A28,35 0 1,1 92,124 Z"></path><path d="M119,110 C111,104 102,104 96,108 L96,140 C102,135 111,136 119,142 Z"></path><path d="M122,110 L133,108 C141,108 146,114 146,122 L146,135 C146,142 140,145 133,143 L122,142 Z"></path></g><g fill="url(#g)"><rect x="128" y="120.5" width="9" height="2.8" rx="1.2"></rect><rect x="131.1" y="117.5" width="2.8" height="9" rx="1.2"></rect><circle cx="139" cy="135" r="2.5"></circle></g></svg>